<svg xmlns="http://www.w3.org/2000/svg" xmlns:xlink="http://www.w3.org/1999/xlink" width="500" zoomAndPan="magnify" viewBox="0 0 375 155.999997" height="208" preserveAspectRatio="xMidYMid meet" version="1.0"><defs><clipPath id="0ff3d84dd1"><path d="M 0.113281 36 L 375 36 L 375 61 L 0.113281 61 Z M 0.113281 36 " clip-rule="nonzero"/></clipPath><clipPath id="7b88d20959"><path d="M 208.5 45.816406 L 218.59375 45.816406 L 218.59375 55.054688 L 208.5 55.054688 Z M 208.5 45.816406 " clip-rule="nonzero"/></clipPath></defs><path fill="#0f728a" d="M 324.980469 74.320312 L 339.832031 74.320312 L 339.832031 156.441406 L 324.980469 156.441406 Z M 324.980469 74.320312 " fill-opacity="1" fill-rule="nonzero"/><path fill="#0f728a" d="M 35.160156 74.320312 L 50.011719 74.320312 L 50.011719 156.441406 L 35.160156 156.441406 Z M 35.160156 74.320312 " fill-opacity="1" fill-rule="nonzero"/><g clip-path="url(#0ff3d84dd1)"><path fill="#0f728a" d="M 362.511719 36.214844 L 12.480469 36.214844 C 5.660156 36.214844 0.113281 41.761719 0.113281 48.582031 C 0.113281 55.398438 5.660156 60.941406 12.480469 60.941406 L 362.519531 60.941406 C 369.335938 60.941406 374.886719 55.398438 374.886719 48.582031 C 374.886719 41.761719 369.335938 36.214844 362.519531 36.214844 Z M 362.511719 36.214844 " fill-opacity="1" fill-rule="nonzero"/></g><path fill="#0f728a" d="M 35.160156 3.761719 L 35.160156 22.828125 L 130.222656 22.828125 L 130.222656 3.761719 C 130.222656 1.808594 128.636719 0.222656 126.683594 0.222656 L 38.707031 0.222656 C 36.753906 0.222656 35.167969 1.808594 35.167969 3.761719 Z M 35.160156 3.761719 " fill-opacity="1" fill-rule="nonzero"/><g clip-path="url(#7b88d20959)"><path fill="#0f728a" d="M 208.5 45.816406 L 218.601562 45.816406 L 218.601562 55.054688 L 208.5 55.054688 Z M 208.5 45.816406 " fill-opacity="1" fill-rule="nonzero"/></g></svg>